%TF.GenerationSoftware,Altium Limited,Altium Designer,24.2.2 (26)*%
G04 Layer_Physical_Order=1*
G04 Layer_Color=255*
%FSLAX25Y25*%
%MOIN*%
%TF.SameCoordinates,61B93A5C-ACDD-4E93-83ED-5FE4BE46D4D4*%
%TF.FilePolarity,Positive*%
%TF.FileFunction,Copper,L1,Top,Signal*%
%TF.Part,Single*%
G01*
G75*
%TA.AperFunction,SMDPad,CuDef*%
%ADD10R,0.03937X0.02953*%
%ADD11R,0.03961X0.04153*%
%TA.AperFunction,Conductor*%
%ADD12C,0.01200*%
%ADD13C,0.00600*%
%ADD14C,0.01000*%
%ADD15C,0.02500*%
%TA.AperFunction,ComponentPad*%
%ADD16R,0.06693X0.06693*%
%ADD17C,0.07284*%
%TA.AperFunction,WasherPad*%
%ADD18C,0.06000*%
G36*
X603600Y127000D02*
X100000D01*
Y190000D01*
X603600D01*
Y127000D01*
D02*
G37*
G36*
Y55000D02*
X100000D01*
Y120000D01*
X603600D01*
Y55000D01*
D02*
G37*
%LPC*%
G36*
X591593Y186023D02*
X591482D01*
Y181882D01*
X595623D01*
Y181993D01*
X595307Y183173D01*
X594696Y184232D01*
X593832Y185096D01*
X592773Y185707D01*
X591593Y186023D01*
D02*
G37*
G36*
X551829D02*
X551718D01*
Y181882D01*
X555860D01*
Y181993D01*
X555544Y183173D01*
X554932Y184232D01*
X554068Y185096D01*
X553010Y185707D01*
X551829Y186023D01*
D02*
G37*
G36*
X148993D02*
X148882D01*
Y181882D01*
X153024D01*
Y181993D01*
X152707Y183173D01*
X152096Y184232D01*
X151232Y185096D01*
X150173Y185707D01*
X148993Y186023D01*
D02*
G37*
G36*
X147882D02*
X147771D01*
X146590Y185707D01*
X145532Y185096D01*
X144667Y184232D01*
X144056Y183173D01*
X143740Y181993D01*
Y181882D01*
X147882D01*
Y186023D01*
D02*
G37*
G36*
X109229D02*
X109118D01*
Y181882D01*
X113260D01*
Y181993D01*
X112944Y183173D01*
X112332Y184232D01*
X111468Y185096D01*
X110410Y185707D01*
X109229Y186023D01*
D02*
G37*
G36*
X108118D02*
X108007D01*
X106827Y185707D01*
X105768Y185096D01*
X104904Y184232D01*
X104293Y183173D01*
X103977Y181993D01*
Y181882D01*
X108118D01*
Y186023D01*
D02*
G37*
G36*
X590482D02*
X590371D01*
X589190Y185707D01*
X588132Y185096D01*
X587267Y184232D01*
X586656Y183173D01*
X586340Y181993D01*
Y181882D01*
X590482D01*
Y186023D01*
D02*
G37*
G36*
X550718D02*
X550607D01*
X549427Y185707D01*
X548368Y185096D01*
X547504Y184232D01*
X546893Y183173D01*
X546576Y181993D01*
Y181882D01*
X550718D01*
Y186023D01*
D02*
G37*
G36*
X595623Y180882D02*
X591482D01*
Y176740D01*
X591593D01*
X592773Y177056D01*
X593832Y177667D01*
X594696Y178532D01*
X595307Y179590D01*
X595623Y180771D01*
Y180882D01*
D02*
G37*
G36*
X590482D02*
X586340D01*
Y180771D01*
X586656Y179590D01*
X587267Y178532D01*
X588132Y177667D01*
X589190Y177056D01*
X590371Y176740D01*
X590482D01*
Y180882D01*
D02*
G37*
G36*
X555860D02*
X551718D01*
Y176740D01*
X551829D01*
X553010Y177056D01*
X554068Y177667D01*
X554932Y178532D01*
X555544Y179590D01*
X555860Y180771D01*
Y180882D01*
D02*
G37*
G36*
X550718D02*
X546576D01*
Y180771D01*
X546893Y179590D01*
X547504Y178532D01*
X548368Y177667D01*
X549427Y177056D01*
X550607Y176740D01*
X550718D01*
Y180882D01*
D02*
G37*
G36*
X153024D02*
X148882D01*
Y176740D01*
X148993D01*
X150173Y177056D01*
X151232Y177667D01*
X152096Y178532D01*
X152707Y179590D01*
X153024Y180771D01*
Y180882D01*
D02*
G37*
G36*
X147882D02*
X143740D01*
Y180771D01*
X144056Y179590D01*
X144667Y178532D01*
X145532Y177667D01*
X146590Y177056D01*
X147771Y176740D01*
X147882D01*
Y180882D01*
D02*
G37*
G36*
X113260D02*
X109118D01*
Y176740D01*
X109229D01*
X110410Y177056D01*
X111468Y177667D01*
X112332Y178532D01*
X112944Y179590D01*
X113260Y180771D01*
Y180882D01*
D02*
G37*
G36*
X108118D02*
X103977D01*
Y180771D01*
X104293Y179590D01*
X104904Y178532D01*
X105768Y177667D01*
X106827Y177056D01*
X108007Y176740D01*
X108118D01*
Y180882D01*
D02*
G37*
G36*
X575447Y165847D02*
X566753D01*
Y163520D01*
X542068D01*
Y163929D01*
X536131D01*
Y163520D01*
X132846D01*
Y165847D01*
X124153D01*
Y157153D01*
X132846D01*
Y159480D01*
X536131D01*
Y158976D01*
X542068D01*
Y159480D01*
X566753D01*
Y157153D01*
X575447D01*
Y165847D01*
D02*
G37*
G36*
X542068Y158024D02*
X539600D01*
Y156047D01*
X542068D01*
Y158024D01*
D02*
G37*
G36*
X538600D02*
X536131D01*
Y156047D01*
X538600D01*
Y158024D01*
D02*
G37*
G36*
X542068Y155047D02*
X539600D01*
Y153071D01*
X542068D01*
Y155047D01*
D02*
G37*
G36*
X538600D02*
X536131D01*
Y153071D01*
X538600D01*
Y155047D01*
D02*
G37*
G36*
X591593Y146260D02*
X591482D01*
Y142118D01*
X595623D01*
Y142229D01*
X595307Y143410D01*
X594696Y144468D01*
X593832Y145333D01*
X592773Y145944D01*
X591593Y146260D01*
D02*
G37*
G36*
X551829D02*
X551718D01*
Y142118D01*
X555860D01*
Y142229D01*
X555544Y143410D01*
X554932Y144468D01*
X554068Y145333D01*
X553010Y145944D01*
X551829Y146260D01*
D02*
G37*
G36*
X148993D02*
X148882D01*
Y142118D01*
X153024D01*
Y142229D01*
X152707Y143410D01*
X152096Y144468D01*
X151232Y145333D01*
X150173Y145944D01*
X148993Y146260D01*
D02*
G37*
G36*
X147882D02*
X147771D01*
X146590Y145944D01*
X145532Y145333D01*
X144667Y144468D01*
X144056Y143410D01*
X143740Y142229D01*
Y142118D01*
X147882D01*
Y146260D01*
D02*
G37*
G36*
X109229D02*
X109118D01*
Y142118D01*
X113260D01*
Y142229D01*
X112944Y143410D01*
X112332Y144468D01*
X111468Y145333D01*
X110410Y145944D01*
X109229Y146260D01*
D02*
G37*
G36*
X108118D02*
X108007D01*
X106827Y145944D01*
X105768Y145333D01*
X104904Y144468D01*
X104293Y143410D01*
X103977Y142229D01*
Y142118D01*
X108118D01*
Y146260D01*
D02*
G37*
G36*
X590482D02*
X590371D01*
X589190Y145944D01*
X588132Y145333D01*
X587267Y144468D01*
X586656Y143410D01*
X586340Y142229D01*
Y142118D01*
X590482D01*
Y146260D01*
D02*
G37*
G36*
X550718D02*
X550607D01*
X549427Y145944D01*
X548368Y145333D01*
X547504Y144468D01*
X546893Y143410D01*
X546576Y142229D01*
Y142118D01*
X550718D01*
Y146260D01*
D02*
G37*
G36*
X595623Y141118D02*
X591482D01*
Y136977D01*
X591593D01*
X592773Y137293D01*
X593832Y137904D01*
X594696Y138768D01*
X595307Y139827D01*
X595623Y141007D01*
Y141118D01*
D02*
G37*
G36*
X590482D02*
X586340D01*
Y141007D01*
X586656Y139827D01*
X587267Y138768D01*
X588132Y137904D01*
X589190Y137293D01*
X590371Y136977D01*
X590482D01*
Y141118D01*
D02*
G37*
G36*
X555860D02*
X551718D01*
Y136977D01*
X551829D01*
X553010Y137293D01*
X554068Y137904D01*
X554932Y138768D01*
X555544Y139827D01*
X555860Y141007D01*
Y141118D01*
D02*
G37*
G36*
X550718D02*
X546576D01*
Y141007D01*
X546893Y139827D01*
X547504Y138768D01*
X548368Y137904D01*
X549427Y137293D01*
X550607Y136977D01*
X550718D01*
Y141118D01*
D02*
G37*
G36*
X153024D02*
X148882D01*
Y136977D01*
X148993D01*
X150173Y137293D01*
X151232Y137904D01*
X152096Y138768D01*
X152707Y139827D01*
X153024Y141007D01*
Y141118D01*
D02*
G37*
G36*
X147882D02*
X143740D01*
Y141007D01*
X144056Y139827D01*
X144667Y138768D01*
X145532Y137904D01*
X146590Y137293D01*
X147771Y136977D01*
X147882D01*
Y141118D01*
D02*
G37*
G36*
X113260D02*
X109118D01*
Y136977D01*
X109229D01*
X110410Y137293D01*
X111468Y137904D01*
X112332Y138768D01*
X112944Y139827D01*
X113260Y141007D01*
Y141118D01*
D02*
G37*
G36*
X108118D02*
X103977D01*
Y141007D01*
X104293Y139827D01*
X104904Y138768D01*
X105768Y137904D01*
X106827Y137293D01*
X108007Y136977D01*
X108118D01*
Y141118D01*
D02*
G37*
G36*
X591593Y115024D02*
X591482D01*
Y110882D01*
X595623D01*
Y110993D01*
X595307Y112173D01*
X594696Y113232D01*
X593832Y114096D01*
X592773Y114707D01*
X591593Y115024D01*
D02*
G37*
G36*
X551829D02*
X551718D01*
Y110882D01*
X555860D01*
Y110993D01*
X555544Y112173D01*
X554932Y113232D01*
X554068Y114096D01*
X553010Y114707D01*
X551829Y115024D01*
D02*
G37*
G36*
X148993D02*
X148882D01*
Y110882D01*
X153024D01*
Y110993D01*
X152707Y112173D01*
X152096Y113232D01*
X151232Y114096D01*
X150173Y114707D01*
X148993Y115024D01*
D02*
G37*
G36*
X147882D02*
X147771D01*
X146590Y114707D01*
X145532Y114096D01*
X144667Y113232D01*
X144056Y112173D01*
X143740Y110993D01*
Y110882D01*
X147882D01*
Y115024D01*
D02*
G37*
G36*
X109229D02*
X109118D01*
Y110882D01*
X113260D01*
Y110993D01*
X112944Y112173D01*
X112332Y113232D01*
X111468Y114096D01*
X110410Y114707D01*
X109229Y115024D01*
D02*
G37*
G36*
X108118D02*
X108007D01*
X106827Y114707D01*
X105768Y114096D01*
X104904Y113232D01*
X104293Y112173D01*
X103977Y110993D01*
Y110882D01*
X108118D01*
Y115024D01*
D02*
G37*
G36*
X590482D02*
X590371D01*
X589190Y114707D01*
X588132Y114096D01*
X587267Y113232D01*
X586656Y112173D01*
X586340Y110993D01*
Y110882D01*
X590482D01*
Y115024D01*
D02*
G37*
G36*
X550718D02*
X550607D01*
X549427Y114707D01*
X548368Y114096D01*
X547504Y113232D01*
X546893Y112173D01*
X546576Y110993D01*
Y110882D01*
X550718D01*
Y115024D01*
D02*
G37*
G36*
X595623Y109882D02*
X591482D01*
Y105740D01*
X591593D01*
X592773Y106056D01*
X593832Y106667D01*
X594696Y107532D01*
X595307Y108590D01*
X595623Y109771D01*
Y109882D01*
D02*
G37*
G36*
X590482D02*
X586340D01*
Y109771D01*
X586656Y108590D01*
X587267Y107532D01*
X588132Y106667D01*
X589190Y106056D01*
X590371Y105740D01*
X590482D01*
Y109882D01*
D02*
G37*
G36*
X555860D02*
X551718D01*
Y105740D01*
X551829D01*
X553010Y106056D01*
X554068Y106667D01*
X554932Y107532D01*
X555544Y108590D01*
X555860Y109771D01*
Y109882D01*
D02*
G37*
G36*
X550718D02*
X546576D01*
Y109771D01*
X546893Y108590D01*
X547504Y107532D01*
X548368Y106667D01*
X549427Y106056D01*
X550607Y105740D01*
X550718D01*
Y109882D01*
D02*
G37*
G36*
X153024D02*
X148882D01*
Y105740D01*
X148993D01*
X150173Y106056D01*
X151232Y106667D01*
X152096Y107532D01*
X152707Y108590D01*
X153024Y109771D01*
Y109882D01*
D02*
G37*
G36*
X147882D02*
X143740D01*
Y109771D01*
X144056Y108590D01*
X144667Y107532D01*
X145532Y106667D01*
X146590Y106056D01*
X147771Y105740D01*
X147882D01*
Y109882D01*
D02*
G37*
G36*
X113260D02*
X109118D01*
Y105740D01*
X109229D01*
X110410Y106056D01*
X111468Y106667D01*
X112332Y107532D01*
X112944Y108590D01*
X113260Y109771D01*
Y109882D01*
D02*
G37*
G36*
X108118D02*
X103977D01*
Y109771D01*
X104293Y108590D01*
X104904Y107532D01*
X105768Y106667D01*
X106827Y106056D01*
X108007Y105740D01*
X108118D01*
Y109882D01*
D02*
G37*
G36*
X571100Y95694D02*
X128500D01*
X127156Y95517D01*
X125903Y94999D01*
X125705Y94846D01*
X124153D01*
Y93295D01*
X124002Y93097D01*
X123483Y91844D01*
X123306Y90500D01*
X123483Y89156D01*
X124002Y87903D01*
X124153Y87705D01*
Y86154D01*
X125705D01*
X125903Y86001D01*
X127156Y85483D01*
X128500Y85306D01*
X536119D01*
Y85143D01*
X539100D01*
X542081D01*
Y85306D01*
X571100D01*
X572444Y85483D01*
X573697Y86001D01*
X573895Y86154D01*
X575447D01*
Y87705D01*
X575598Y87903D01*
X576117Y89156D01*
X576294Y90500D01*
X576117Y91844D01*
X575598Y93097D01*
X575447Y93295D01*
Y94846D01*
X573895D01*
X573697Y94999D01*
X572444Y95517D01*
X571100Y95694D01*
D02*
G37*
G36*
X542081Y84143D02*
X539600D01*
Y81567D01*
X542081D01*
Y84143D01*
D02*
G37*
G36*
X538600D02*
X536119D01*
Y81567D01*
X538600D01*
Y84143D01*
D02*
G37*
G36*
X591593Y75260D02*
X591482D01*
Y71118D01*
X595623D01*
Y71229D01*
X595307Y72410D01*
X594696Y73468D01*
X593832Y74332D01*
X592773Y74944D01*
X591593Y75260D01*
D02*
G37*
G36*
X551829D02*
X551718D01*
Y71118D01*
X555860D01*
Y71229D01*
X555544Y72410D01*
X554932Y73468D01*
X554068Y74332D01*
X553010Y74944D01*
X551829Y75260D01*
D02*
G37*
G36*
X148993D02*
X148882D01*
Y71118D01*
X153024D01*
Y71229D01*
X152707Y72410D01*
X152096Y73468D01*
X151232Y74332D01*
X150173Y74944D01*
X148993Y75260D01*
D02*
G37*
G36*
X147882D02*
X147771D01*
X146590Y74944D01*
X145532Y74332D01*
X144667Y73468D01*
X144056Y72410D01*
X143740Y71229D01*
Y71118D01*
X147882D01*
Y75260D01*
D02*
G37*
G36*
X109229D02*
X109118D01*
Y71118D01*
X113260D01*
Y71229D01*
X112944Y72410D01*
X112332Y73468D01*
X111468Y74332D01*
X110410Y74944D01*
X109229Y75260D01*
D02*
G37*
G36*
X108118D02*
X108007D01*
X106827Y74944D01*
X105768Y74332D01*
X104904Y73468D01*
X104293Y72410D01*
X103977Y71229D01*
Y71118D01*
X108118D01*
Y75260D01*
D02*
G37*
G36*
X590482D02*
X590371D01*
X589190Y74944D01*
X588132Y74332D01*
X587267Y73468D01*
X586656Y72410D01*
X586340Y71229D01*
Y71118D01*
X590482D01*
Y75260D01*
D02*
G37*
G36*
X550718D02*
X550607D01*
X549427Y74944D01*
X548368Y74332D01*
X547504Y73468D01*
X546893Y72410D01*
X546576Y71229D01*
Y71118D01*
X550718D01*
Y75260D01*
D02*
G37*
G36*
X595623Y70118D02*
X591482D01*
Y65977D01*
X591593D01*
X592773Y66293D01*
X593832Y66904D01*
X594696Y67768D01*
X595307Y68827D01*
X595623Y70007D01*
Y70118D01*
D02*
G37*
G36*
X590482D02*
X586340D01*
Y70007D01*
X586656Y68827D01*
X587267Y67768D01*
X588132Y66904D01*
X589190Y66293D01*
X590371Y65977D01*
X590482D01*
Y70118D01*
D02*
G37*
G36*
X555860D02*
X551718D01*
Y65977D01*
X551829D01*
X553010Y66293D01*
X554068Y66904D01*
X554932Y67768D01*
X555544Y68827D01*
X555860Y70007D01*
Y70118D01*
D02*
G37*
G36*
X550718D02*
X546576D01*
Y70007D01*
X546893Y68827D01*
X547504Y67768D01*
X548368Y66904D01*
X549427Y66293D01*
X550607Y65977D01*
X550718D01*
Y70118D01*
D02*
G37*
G36*
X153024D02*
X148882D01*
Y65977D01*
X148993D01*
X150173Y66293D01*
X151232Y66904D01*
X152096Y67768D01*
X152707Y68827D01*
X153024Y70007D01*
Y70118D01*
D02*
G37*
G36*
X147882D02*
X143740D01*
Y70007D01*
X144056Y68827D01*
X144667Y67768D01*
X145532Y66904D01*
X146590Y66293D01*
X147771Y65977D01*
X147882D01*
Y70118D01*
D02*
G37*
G36*
X113260D02*
X109118D01*
Y65977D01*
X109229D01*
X110410Y66293D01*
X111468Y66904D01*
X112332Y67768D01*
X112944Y68827D01*
X113260Y70007D01*
Y70118D01*
D02*
G37*
G36*
X108118D02*
X103977D01*
Y70007D01*
X104293Y68827D01*
X104904Y67768D01*
X105768Y66904D01*
X106827Y66293D01*
X108007Y65977D01*
X108118D01*
Y70118D01*
D02*
G37*
%LPD*%
D10*
X526200Y538947D02*
D03*
Y544853D02*
D03*
X526200Y618947D02*
D03*
Y624853D02*
D03*
X524100Y299047D02*
D03*
Y304953D02*
D03*
X523700Y379300D02*
D03*
Y385206D02*
D03*
X524100Y224953D02*
D03*
Y219047D02*
D03*
X526200Y464853D02*
D03*
Y458947D02*
D03*
X539100Y155547D02*
D03*
Y161453D02*
D03*
D11*
Y84643D02*
D03*
Y90357D02*
D03*
D12*
X525216Y618947D02*
X526124D01*
X537889D01*
X513269Y607000D02*
X525216Y618947D01*
X148382Y605618D02*
X149546Y606782D01*
X151909D02*
X152127Y607000D01*
X108618Y605618D02*
X148382D01*
X149546Y606782D02*
X151909D01*
X152127Y607000D02*
X513269D01*
X551218Y645382D02*
X590121D01*
X590551Y644951D01*
Y606049D02*
Y644951D01*
X551218Y605618D02*
X590982D01*
X537889Y618947D02*
X551218Y605618D01*
X108618D02*
Y645382D01*
X149319D01*
X519347Y303800D02*
X524100Y299047D01*
X148382Y294051D02*
X158131Y303800D01*
X519347D01*
X131246Y305600D02*
X522731D01*
X524100Y305500D01*
X128500D02*
X131246Y305600D01*
X148382Y285618D02*
Y294051D01*
X151909Y446782D02*
X152127Y447000D01*
X514900D02*
X524831Y456931D01*
X148382Y445618D02*
X149546Y446782D01*
X151909D01*
X152127Y447000D02*
X514900D01*
X524831Y458071D02*
X525971D01*
X526200Y458300D02*
X538536D01*
X524831Y456931D02*
Y458071D01*
X525971D02*
X526200Y458300D01*
X128500Y625500D02*
X571100D01*
X128500Y465500D02*
X526200Y465500D01*
X590982Y445618D02*
Y485382D01*
X551218D02*
X590982D01*
X551218Y445618D02*
X590982D01*
X524100Y305500D02*
X571100D01*
X590982Y285618D02*
Y325382D01*
X551218D02*
X590982D01*
X537529Y285618D02*
X551218D01*
X590982D01*
X524347Y298800D02*
X537529Y285618D01*
X538536Y458300D02*
X551218Y445618D01*
X526200Y465500D02*
X571100Y465500D01*
X108618Y285618D02*
Y325382D01*
X148382D01*
X108618Y285618D02*
X148382D01*
D13*
X526174Y538974D02*
X539767D01*
X553122Y525618D01*
X513600Y526400D02*
X526174Y538974D01*
X108618Y526318D02*
X148382D01*
X108618D02*
Y565382D01*
Y525618D02*
Y526318D01*
X148382Y525618D02*
X149164Y526400D01*
X513600D01*
X551218Y565382D02*
X590982D01*
Y525618D02*
Y565382D01*
X553122Y525618D02*
X590982D01*
X108618Y565382D02*
X148382D01*
X510200Y366500D02*
X521824Y378124D01*
X151072Y366500D02*
X510200D01*
X150190Y365618D02*
X151072Y366500D01*
X108618Y365618D02*
X150190D01*
X521824Y378124D02*
X522924D01*
X523700Y378900D01*
X524100D01*
X537936D01*
X128500Y545500D02*
X572033D01*
X571100Y385500D02*
X572200D01*
X523700D02*
X571100D01*
X128500Y385500D02*
X523700Y385500D01*
X128500Y225500D02*
X571100D01*
X590982Y205618D02*
Y245382D01*
X537936Y378900D02*
X551218Y365618D01*
X590982Y365618D02*
Y405382D01*
X551218Y365618D02*
X590982D01*
X551218Y405382D02*
X590982D01*
X551218Y245382D02*
X590982D01*
X524100Y219047D02*
X537529Y205618D01*
X518847Y224300D02*
X524100Y219047D01*
X551218Y205618D02*
X590982D01*
X537529D02*
X551218D01*
X155100Y224300D02*
X518700D01*
X148400Y217600D02*
X155100Y224300D01*
X108618Y245382D02*
X148382D01*
X108618Y205618D02*
Y245382D01*
Y205618D02*
X148382D01*
X148400Y205636D01*
Y217600D01*
X108618Y405382D02*
X148382D01*
X108618Y365618D02*
Y405382D01*
D14*
X526174Y538974D02*
X526200Y538947D01*
X526124Y619024D02*
X526200Y618947D01*
X590100Y71500D02*
X590982Y70618D01*
X108618Y485382D02*
X148382D01*
X108618Y445618D02*
Y485382D01*
Y445618D02*
X148382D01*
D15*
X570900Y90500D02*
X571100D01*
X539100D02*
X570900D01*
X128500D02*
X539100D01*
X571100Y161500D02*
X571200D01*
X128953D02*
X571100D01*
D16*
Y385500D02*
D03*
Y545500D02*
D03*
X128500D02*
D03*
X571100Y625500D02*
D03*
X128500D02*
D03*
X571100Y305500D02*
D03*
Y225500D02*
D03*
Y465500D02*
D03*
X128500Y305500D02*
D03*
X571100Y161500D02*
D03*
Y90500D02*
D03*
X128500Y385500D02*
D03*
Y465500D02*
D03*
Y161500D02*
D03*
Y225500D02*
D03*
Y90500D02*
D03*
D17*
X590982Y365618D02*
D03*
X551218D02*
D03*
X590982Y405382D02*
D03*
X551218D02*
D03*
X590982Y525618D02*
D03*
X551218D02*
D03*
X590982Y565382D02*
D03*
X551218D02*
D03*
X148382Y525618D02*
D03*
X108618D02*
D03*
X148382Y565382D02*
D03*
X108618D02*
D03*
X551218Y645382D02*
D03*
X590982D02*
D03*
X551218Y605618D02*
D03*
X590982D02*
D03*
X148382D02*
D03*
X108618D02*
D03*
X148382Y645382D02*
D03*
X108618D02*
D03*
X551218Y325382D02*
D03*
X590982D02*
D03*
X551218Y285618D02*
D03*
X590982D02*
D03*
X551218Y245382D02*
D03*
X590982D02*
D03*
X551218Y205618D02*
D03*
X590982D02*
D03*
X551218Y485382D02*
D03*
X590982D02*
D03*
X551218Y445618D02*
D03*
X590982D02*
D03*
X108618Y325382D02*
D03*
X148382D02*
D03*
X108618Y285618D02*
D03*
X148382D02*
D03*
X590982Y141618D02*
D03*
X551218D02*
D03*
X590982Y181382D02*
D03*
X551218D02*
D03*
X590982Y70618D02*
D03*
X551218D02*
D03*
X590982Y110382D02*
D03*
X551218D02*
D03*
X148382Y365618D02*
D03*
X108618D02*
D03*
X148382Y405382D02*
D03*
X108618D02*
D03*
X148382Y445618D02*
D03*
X108618D02*
D03*
X148382Y485382D02*
D03*
X108618D02*
D03*
X148382Y141618D02*
D03*
X108618D02*
D03*
X148382Y181382D02*
D03*
X108618D02*
D03*
X148382Y205618D02*
D03*
X108618D02*
D03*
X148382Y245382D02*
D03*
X108618D02*
D03*
X148382Y70618D02*
D03*
X108618D02*
D03*
X148382Y110382D02*
D03*
X108618D02*
D03*
D18*
X586614Y43307D02*
D03*
X122047D02*
D03*
X122047Y673228D02*
D03*
X586614D02*
D03*
%TF.MD5,5492c1b5a98a3ca4b9554f2d0d8edd2c*%
M02*
