%TF.GenerationSoftware,Altium Limited,Altium Designer,24.2.2 (26)*%
G04 Layer_Color=32896*
%FSLAX25Y25*%
%MOIN*%
%TF.SameCoordinates,61B93A5C-ACDD-4E93-83ED-5FE4BE46D4D4*%
%TF.FilePolarity,Positive*%
%TF.FileFunction,Legend,Bot*%
%TF.Part,Single*%
G01*
G75*
%TA.AperFunction,NonConductor*%
%ADD21C,0.01000*%
%ADD23C,0.00600*%
D21*
X358268Y362205D02*
X358268D01*
X345800Y361298D02*
Y355300D01*
X342801D01*
X341801Y356300D01*
Y357299D01*
X342801Y358299D01*
X345800D01*
X342801D01*
X341801Y359299D01*
Y360298D01*
X342801Y361298D01*
X345800D01*
X338802Y355300D02*
X336803D01*
X335803Y356300D01*
Y358299D01*
X336803Y359299D01*
X338802D01*
X339802Y358299D01*
Y356300D01*
X338802Y355300D01*
X332804Y359299D02*
X330805D01*
X329805Y358299D01*
Y355300D01*
X332804D01*
X333804Y356300D01*
X332804Y357299D01*
X329805D01*
X327806Y359299D02*
Y355300D01*
Y357299D01*
X326806Y358299D01*
X325806Y359299D01*
X324807D01*
X317809Y361298D02*
Y355300D01*
X320808D01*
X321808Y356300D01*
Y358299D01*
X320808Y359299D01*
X317809D01*
X305813Y360298D02*
X306813Y361298D01*
X308812D01*
X309812Y360298D01*
Y356300D01*
X308812Y355300D01*
X306813D01*
X305813Y356300D01*
X300815Y355300D02*
X302814D01*
X303814Y356300D01*
Y358299D01*
X302814Y359299D01*
X300815D01*
X299815Y358299D01*
Y357299D01*
X303814D01*
X297815Y355300D02*
Y359299D01*
X294816D01*
X293817Y358299D01*
Y355300D01*
X290818Y360298D02*
Y359299D01*
X291817D01*
X289818D01*
X290818D01*
Y356300D01*
X289818Y355300D01*
X283820D02*
X285819D01*
X286819Y356300D01*
Y358299D01*
X285819Y359299D01*
X283820D01*
X282820Y358299D01*
Y357299D01*
X286819D01*
X280821Y359299D02*
Y355300D01*
Y357299D01*
X279821Y358299D01*
X278822Y359299D01*
X277822D01*
X343700Y596798D02*
X339701D01*
X341701D01*
Y590800D01*
X337702D02*
Y596798D01*
X334703D01*
X333703Y595798D01*
Y593799D01*
X334703Y592799D01*
X337702D01*
X331704Y590800D02*
X329704D01*
X330704D01*
Y596798D01*
X331704Y595798D01*
D23*
X350394Y354331D02*
X358268Y362205D01*
X350394D02*
X350394D01*
X350394Y354331D02*
X350394D01*
Y362205D02*
X358268Y354331D01*
%TF.MD5,eb8d38a6ea30b77d75cf66861cfa79fc*%
M02*
