%TF.GenerationSoftware,Altium Limited,Altium Designer,24.2.2 (26)*%
G04 Layer_Color=16711935*
%FSLAX25Y25*%
%MOIN*%
%TF.SameCoordinates,61B93A5C-ACDD-4E93-83ED-5FE4BE46D4D4*%
%TF.FilePolarity,Negative*%
%TF.FileFunction,Soldermask,Bot*%
%TF.Part,Single*%
G01*
G75*
%TA.AperFunction,ComponentPad*%
%ADD16R,0.06693X0.06693*%
%ADD17C,0.07284*%
%TA.AperFunction,WasherPad*%
%ADD24C,0.06800*%
%TA.AperFunction,SMDPad,CuDef*%
%ADD25C,0.16548*%
D16*
X571100Y385500D02*
D03*
Y545500D02*
D03*
X128500D02*
D03*
X571100Y625500D02*
D03*
X128500D02*
D03*
X571100Y305500D02*
D03*
Y225500D02*
D03*
Y465500D02*
D03*
X128500Y305500D02*
D03*
X571100Y161500D02*
D03*
Y90500D02*
D03*
X128500Y385500D02*
D03*
Y465500D02*
D03*
Y161500D02*
D03*
Y225500D02*
D03*
Y90500D02*
D03*
D17*
X590982Y365618D02*
D03*
X551218D02*
D03*
X590982Y405382D02*
D03*
X551218D02*
D03*
X590982Y525618D02*
D03*
X551218D02*
D03*
X590982Y565382D02*
D03*
X551218D02*
D03*
X148382Y525618D02*
D03*
X108618D02*
D03*
X148382Y565382D02*
D03*
X108618D02*
D03*
X551218Y645382D02*
D03*
X590982D02*
D03*
X551218Y605618D02*
D03*
X590982D02*
D03*
X148382D02*
D03*
X108618D02*
D03*
X148382Y645382D02*
D03*
X108618D02*
D03*
X551218Y325382D02*
D03*
X590982D02*
D03*
X551218Y285618D02*
D03*
X590982D02*
D03*
X551218Y245382D02*
D03*
X590982D02*
D03*
X551218Y205618D02*
D03*
X590982D02*
D03*
X551218Y485382D02*
D03*
X590982D02*
D03*
X551218Y445618D02*
D03*
X590982D02*
D03*
X108618Y325382D02*
D03*
X148382D02*
D03*
X108618Y285618D02*
D03*
X148382D02*
D03*
X590982Y141618D02*
D03*
X551218D02*
D03*
X590982Y181382D02*
D03*
X551218D02*
D03*
X590982Y70618D02*
D03*
X551218D02*
D03*
X590982Y110382D02*
D03*
X551218D02*
D03*
X148382Y365618D02*
D03*
X108618D02*
D03*
X148382Y405382D02*
D03*
X108618D02*
D03*
X148382Y445618D02*
D03*
X108618D02*
D03*
X148382Y485382D02*
D03*
X108618D02*
D03*
X148382Y141618D02*
D03*
X108618D02*
D03*
X148382Y181382D02*
D03*
X108618D02*
D03*
X148382Y205618D02*
D03*
X108618D02*
D03*
X148382Y245382D02*
D03*
X108618D02*
D03*
X148382Y70618D02*
D03*
X108618D02*
D03*
X148382Y110382D02*
D03*
X108618D02*
D03*
D24*
X586614Y43307D02*
D03*
X122047D02*
D03*
X122047Y673228D02*
D03*
X586614D02*
D03*
D25*
X337000Y579500D02*
D03*
%TF.MD5,15056071e72576cd5fd2f38f2fadf706*%
M02*
